PathFileType	3	(X/Y/Z)	D:\VICON_DB\Goncalves\Pilot01\09-03-2026\walking_03.trc
DataRate	CameraRate	NumFrames	NumMarkers	Units	OrigDataRate	OrigDataStartFrame	OrigNumFrames
200.0	200.0	5	34	mm	200.0	1129	1504	
Frame#	Time	LASI			RASI			LPSI			RPSI			LTHI			LTHAP			LTHAD			LKNE			LKNM			LTIB			LTIAP			LTIAD			LANK			LMED			LHEE			LTOE			LFMH			LSMH			LVMH			RTHI			RTHAP			RTHAD			RKNE			RKNM			RTIB			RTIAP			RTIAD			RANK			RMED			RHEE			RTOE			RFMH			RSMH			RVMH			
		X1	Y1	Z1	X2	Y2	Z2	X3	Y3	Z3	X4	Y4	Z4	X5	Y5	Z5	X6	Y6	Z6	X7	Y7	Z7	X8	Y8	Z8	X9	Y9	Z9	X10	Y10	Z10	X11	Y11	Z11	X12	Y12	Z12	X13	Y13	Z13	X14	Y14	Z14	X15	Y15	Z15	X16	Y16	Z16	X17	Y17	Z17	X18	Y18	Z18	X19	Y19	Z19	X20	Y20	Z20	X21	Y21	Z21	X22	Y22	Z22	X23	Y23	Z23	X24	Y24	Z24	X25	Y25	Z25	X26	Y26	Z26	X27	Y27	Z27	X28	Y28	Z28	X29	Y29	Z29	X30	Y30	Z30	X31	Y31	Z31	X32	Y32	Z32	X33	Y33	Z33	X34	Y34	Z34	
1129	5.64	92.192612	873.55511	-2040.9615	352.25497	879.56421	-2000.8497	158.13083	924.09082	-1830.7396	220.16734	923.1604	-1821.5248	73.521317	697.81683	-2097.238	49.422302	753.26654	-2055.99	40.932327	626.57037	-2097.717	69.721176	472.02145	-2129.0352				57.122643	287.14398	-2179.5254	119.39902	377.57687	-2189.9402	94.97007	277.82269	-2220.1421	89.645355	84.343155	-2240.3293				138.64371	59.76366	-2194.3887	126.41494	114.52357	-2309.1211	162.7771	109.64156	-2363.4688				85.046417	89.795647	-2369.7942	366.67249	605.43188	-1919.0706	367.79092	726.60443	-1976.6165	343.25366	633.50989	-1985.6986	342.39514	479.36078	-1854.4807				337.2937	287.20047	-1790.972	292.50198	332.11975	-1846.9401	284.31128	252.87149	-1822.0438	280.04764	71.312393	-1699.7941				236.33528	77.472122	-1664.8535	265.91861	69.724861	-1791.4431	240.82906	49.469475	-1840.3885				314.76218	18.888803	-1823.2795
1130	5.645	91.932762	872.82123	-2047.4596	351.99466	878.77136	-2006.6886	157.28458	922.90906	-1837.0067	219.27267	921.94653	-1827.6383	73.05011	696.41382	-2103.1462	48.997189	752.08685	-2062.3247	40.127335	625.38995	-2103.6211	69.083595	470.89523	-2134.7944				56.695469	286.60571	-2187.0337	119.04766	377.12665	-2196.2852	94.694038	277.70471	-2227.627	89.549263	84.231003	-2249.6675				138.25215	59.340549	-2203.9109	126.46863	115.01624	-2318.3252	163.05701	110.63342	-2372.5723				85.424438	90.642502	-2379.4216	366.32339	604.76495	-1924.2767	367.46628	725.80096	-1982.165	343.18497	632.64661	-1991.0651	342.13623	478.79413	-1859.4302				337.18896	287.09128	-1794.16	292.38193	331.36139	-1850.605	284.18887	252.32762	-1824.7383	280.34778	72.329407	-1700.219				236.68712	78.796333	-1665.3055	266.03311	70.024742	-1791.7913	240.84999	49.447403	-1840.522				314.73776	18.884447	-1823.2252
1131	5.65	91.63813	872.16333	-2053.9878	351.6998	878.01947	-2012.5995	156.41504	921.75037	-1843.3141	218.35538	920.74493	-1833.7988	72.596062	695.21857	-2109.2395	48.566624	751.07599	-2068.7786	39.405277	624.36462	-2109.7083	68.489967	469.89871	-2140.678				56.285221	286.00739	-2194.2065	118.67818	376.59137	-2202.5798	94.40152	277.42703	-2234.7729	89.470047	83.945374	-2258.1521				137.87442	58.887947	-2212.5608	126.50293	115.1666	-2326.7668	163.31625	111.14435	-2380.8926				85.784752	90.984703	-2388.2068	365.97443	604.10541	-1929.6204	367.12125	725.01398	-1987.8232	343.11118	631.79504	-1996.563	341.88522	478.22363	-1864.53				337.10666	287.00403	-1797.4755	292.27594	330.58484	-1854.3909	284.09039	251.79529	-1827.5298	280.73016	73.440201	-1700.6934				237.11839	80.228912	-1665.8	266.18884	70.364838	-1792.181	240.88344	49.43222	-1840.6669				314.71912	18.869509	-1823.178
1132	5.655	91.305862	871.57965	-2060.5471	351.36783	877.30548	-2018.5887	155.52557	920.62183	-1849.6655	217.41917	919.56342	-1840.0126	72.160767	694.23083	-2115.532	48.129105	750.23444	-2075.3586	38.777031	623.48981	-2115.9829	67.950897	469.03192	-2146.689				55.893139	285.34152	-2201.0496	118.29621	375.96646	-2208.8274	94.094055	276.9809	-2241.5867	89.398483	83.469269	-2265.7991				137.50345	58.383224	-2220.3496	126.51283	114.96233	-2334.4556	163.5495	111.16637	-2388.4434				86.120758	90.813484	-2396.1626	365.62137	603.45184	-1935.1016	366.755	724.24072	-1993.5918	343.03165	630.95294	-2002.194	341.63818	477.64694	-1869.7823				337.04187	286.93954	-1800.918	292.18094	329.78937	-1858.2993	284.01309	251.27711	-1830.4188	281.1842	74.648964	-1701.2201				237.61728	81.7752	-1666.3447	266.38229	70.745911	-1792.615	240.92897	49.423656	-1840.8265				314.70322	18.845787	-1823.1355
1133	5.66	90.933441	871.06622	-2067.1414	350.99689	876.62567	-2024.6622	154.6199	919.53076	-1856.0648	216.46811	918.40967	-1846.285	71.745636	693.4433	-2122.0298	47.683792	749.55658	-2082.0703	38.249382	622.7569	-2122.4429	67.47438	468.29135	-2152.8267				55.52055	284.60373	-2207.5715	117.90762	375.24896	-2215.0303	93.773964	276.36206	-2248.0791	89.324699	82.795174	-2272.6362				137.13318	57.810673	-2227.2971	126.49384	114.40001	-2341.4082	163.75073	110.7014	-2395.2466				86.425079	90.131416	-2403.3098	365.25998	602.80176	-1940.7212	366.36603	723.47858	-1999.4717	342.94424	630.11823	-2007.9589	341.39117	477.06076	-1875.1888				336.98944	286.89883	-1804.4865	292.09369	328.9754	-1862.3322	283.9534	250.77548	-1833.4055	281.69714	75.959686	-1701.8027				238.17081	83.440971	-1666.9469	266.60968	71.168526	-1793.0961	240.98615	49.421272	-1841.004				314.68683	18.81572	-1823.0962
